<?xml version="1.0" encoding="iso-8859-1"?>
<!-- Generator: Adobe Illustrator 19.0.0, SVG Export Plug-In . SVG Version: 6.00 Build 0)  -->
<svg version="1.1" id="Layer_1" xmlns="http://www.w3.org/2000/svg" xmlns:xlink="http://www.w3.org/1999/xlink" x="0px" y="0px"
	 viewBox="0 0 485 485" style="enable-background:new 0 0 485 485;" xml:space="preserve">
<g>
	<path d="M450,267.154V145V75c0-24.813-20.187-45-45-45H237.42C231.228,12.541,214.555,0,195,0H45C20.187,0,0,20.187,0,45v325.57
		h227.015C234.473,434.897,289.276,485,355.57,485C426.938,485,485,426.938,485,355.57C485,321.413,471.694,290.309,450,267.154z
		 M420,75v27.58c-4.695-1.665-9.741-2.58-15-2.58H240V60h165C413.271,60,420,66.729,420,75z M30,45c0-8.271,6.729-15,15-15h150
		c8.271,0,15,6.729,15,15v85h195c8.271,0,15,6.729,15,15v98.346c-18.984-10.941-40.989-17.206-64.43-17.206
		c-66.295,0-121.097,50.103-128.555,114.43H30V45z M355.57,455c-54.826,0-99.43-44.604-99.43-99.43s44.604-99.43,99.43-99.43
		S455,300.744,455,355.57S410.396,455,355.57,455z"/>
	<polygon points="370.57,293.954 340.57,293.954 340.57,340.57 293.955,340.57 293.955,370.57 340.57,370.57 340.57,417.187 
		370.57,417.187 370.57,370.57 417.187,370.57 417.187,340.57 370.57,340.57 	"/>
</g>
<g>
</g>
<g>
</g>
<g>
</g>
<g>
</g>
<g>
</g>
<g>
</g>
<g>
</g>
<g>
</g>
<g>
</g>
<g>
</g>
<g>
</g>
<g>
</g>
<g>
</g>
<g>
</g>
<g>
</g>
</svg>
